<svg xmlns="http://www.w3.org/2000/svg" width="71" height="70" viewBox="0 0 71 70" fill="none"><path d="M68.9951 20.6749C66.1426 12.3875 59.5516 6.152 52.2038 4.78881C45.9294 3.62493 39.785 6.07881 34.8563 11.7046C29.7191 11.4423 26.584 7.8688 25.2796 0.797158C25.2307 0.532853 25.074 0.300493 24.8464 0.154937C24.6188 0.00938234 24.341 -0.0360341 24.0782 0.0289657L16.6321 1.87618C16.1775 1.98896 15.8671 2.40549 15.8914 2.86993C16.1683 8.15033 18.0556 13.0811 21.2058 16.7539C24.3809 20.4557 28.5905 22.6946 33.4218 23.2618C33.7592 25.781 35.1141 28.0592 37.1784 29.5698C37.054 30.1365 36.9731 30.7094 36.9353 31.286L7.18325 14.2407C5.58319 13.3246 3.53106 13.8703 2.60772 15.4574C1.68439 17.0445 2.23444 19.0813 3.83394 19.9978L22.3289 30.5939L22.3989 31.7364C22.4775 33.0226 23.1678 34.1298 24.2923 34.7741L33.3655 39.9723C33.1113 40.5186 32.927 41.0938 32.8181 41.6858C29.3241 41.034 25.758 41.7784 22.1924 43.9062C17.5835 40.6695 12.4526 39.9352 8.024 41.9023C3.83156 43.7645 0.892901 47.8001 0.537676 52.1832C0.18525 56.5305 2.31464 60.4396 6.53354 63.1907C6.85685 63.4017 7.18297 63.6092 7.50712 63.8156C10.0234 65.417 12.1964 66.7999 12.2586 69.0543C12.2731 69.5807 12.7073 70 13.2379 70H20.0607C20.6018 70 21.0404 69.5647 21.0404 69.0278C21.0404 62.3347 15.9098 59.1299 12.5148 57.0093C12.1081 56.7552 11.7238 56.5152 11.369 56.2834C9.86059 55.2974 9.20333 54.2425 9.65387 53.5303C10.0851 52.8484 11.5206 52.3917 12.8788 53.1971C13.0594 53.3042 13.2441 53.4192 13.4347 53.5377C15.1512 54.6055 17.4782 56.0531 21.4462 55.0446C26.6467 58.7341 32.8279 60.6904 39.1681 60.6902C40.2208 60.6902 41.2792 60.6361 42.3369 60.5273C49.9235 59.7459 56.8958 56.2028 61.9691 50.5509C66.1613 45.8808 68.8465 40.7266 69.95 35.2319C70.9276 30.3636 70.5976 25.33 68.9953 20.6753L68.9951 20.6749ZM4.30449 16.4295C4.56174 15.9874 5.02992 15.7402 5.51069 15.7402C5.74639 15.7402 5.98517 15.7996 6.20337 15.9246L21.984 24.9656L22.1861 28.2668L4.81354 18.3136C4.14983 17.9332 3.92142 17.0881 4.30449 16.4295ZM24.3546 31.6183L24.2525 29.9542L24.0185 26.1314L39.3281 34.9025C41.9121 36.46 43.3331 38.5544 43.5617 41.1372C41.6061 41.4695 39.9 41.4711 37.5836 40.144L25.2718 33.0903C24.7109 32.769 24.3938 32.26 24.3544 31.6185L24.3546 31.6183ZM60.5058 49.2573C52.663 57.9941 40.6744 60.8621 30.0883 57.2925L30.5986 57.2671C31.1389 57.2403 31.5551 56.7838 31.5281 56.2475C31.5011 55.7113 31.0419 55.3 30.5005 55.3252L27.6699 55.4659C27.314 55.4835 27.0127 55.6884 26.8559 55.9791C25.2561 55.2121 23.7045 54.287 22.2224 53.2006C21.9749 53.0194 21.6565 52.9639 21.362 53.0505C17.9523 54.0531 16.105 52.9037 14.4753 51.8901C14.2726 51.7639 14.076 51.6417 13.8838 51.5278C11.5879 50.1666 8.98485 50.9298 7.99419 52.4964C7.1484 53.8334 7.30781 55.957 10.291 57.9071C10.6626 58.15 11.0552 58.3953 11.4709 58.6549C14.6595 60.6466 18.5815 63.0963 19.0371 68.0556H14.11C13.5595 65.3579 11.0245 63.7443 8.56496 62.1789C8.24668 61.9764 7.92673 61.7728 7.60957 61.5659C4.01631 59.2227 2.19847 55.9459 2.49072 52.3391C2.78954 48.6534 5.2757 45.2534 8.82459 43.677C11.1351 42.6506 15.8614 41.5686 21.5559 45.8535C21.8835 46.1002 22.332 46.1173 22.678 45.8965C26.3803 43.5329 29.8937 42.853 33.4201 43.8187C33.7119 43.8987 34.0254 43.8401 34.2681 43.6595C34.5108 43.4792 34.6557 43.1976 34.6605 42.8967C34.6711 42.2237 34.8146 41.565 35.0746 40.9515L36.6044 41.8279C38.5044 42.9163 40.1137 43.2672 41.6414 43.2672C42.6992 43.2672 43.7179 43.099 44.7666 42.8911C45.223 42.8005 45.5521 42.404 45.5543 41.942C45.5658 39.409 44.6699 35.8422 40.3355 33.2344C40.3295 33.2308 40.3235 33.2273 40.3175 33.2239L38.8775 32.3989C38.8403 31.3901 38.9601 30.3876 39.237 29.4118C39.3549 28.9962 39.1826 28.5533 38.814 28.3243C36.7196 27.0228 35.408 24.7831 35.3057 22.3329C35.2851 21.841 34.8971 21.442 34.4025 21.4039C25.4338 20.7143 18.743 13.4268 17.9033 3.56548L23.5571 2.16285C25.2106 9.71338 29.1519 13.5814 35.2824 13.6635H35.2957C35.5848 13.6635 35.8595 13.5367 36.0458 13.3167C40.5509 7.99575 46.1612 5.64548 51.8442 6.70006C52.0424 6.73686 52.2399 6.77811 52.4368 6.82283C52.4553 6.96089 52.5029 7.09728 52.5842 7.222L54.1224 9.58421C54.3098 9.87213 54.6247 10.0289 54.9462 10.0289C55.1283 10.0289 55.3127 9.97866 55.477 9.87324C55.9314 9.58185 56.0619 8.98005 55.7681 8.52908L55.2595 7.74797C60.5019 9.99907 64.9722 15.0017 67.1413 21.3035C70.3927 30.749 67.9742 40.9379 60.5064 49.2574L60.5058 49.2573ZM39.5561 54.1589C39.7222 54.67 39.4392 55.2178 38.9241 55.3825L36.2268 56.2455C36.1268 56.2774 36.0255 56.2927 35.926 56.2927C35.5123 56.2927 35.1276 56.0303 34.9938 55.6185C34.8277 55.1074 35.1107 54.5596 35.6258 54.3949L38.3231 53.532C38.8382 53.3677 39.3901 53.6478 39.5562 54.1589H39.5561ZM46.7658 50.0796C47.0596 50.5306 46.9292 51.1324 46.4747 51.4238L44.0942 52.9501C43.9299 53.0555 43.7456 53.1057 43.5635 53.1057C43.242 53.1057 42.9271 52.9489 42.7395 52.661C42.4459 52.2101 42.5763 51.6083 43.0308 51.3169L45.4113 49.7906C45.8656 49.4992 46.4722 49.6287 46.7658 50.0796ZM56.3538 14.2557C56.1877 13.7448 56.4707 13.1968 56.9858 13.0321C57.5008 12.8674 58.0527 13.148 58.2188 13.6592L59.0884 16.336C59.2546 16.847 58.9716 17.3949 58.4565 17.5596C58.3566 17.5916 58.2552 17.6068 58.1557 17.6068C57.742 17.6068 57.3574 17.3445 57.2236 16.9327L56.354 14.2559L56.3538 14.2557ZM60.1181 21.921L60.2599 24.7299C60.2869 25.2661 59.8708 25.7226 59.3303 25.7494C59.3138 25.7503 59.2971 25.7507 59.2806 25.7507C58.762 25.7507 58.3291 25.3468 58.303 24.8271L58.1612 22.0182C58.1342 21.482 58.5503 21.0254 59.0908 20.9986C59.6285 20.9733 60.0911 21.3847 60.1183 21.921H60.1181ZM59.7978 30.389L59.2021 33.1386C59.1033 33.5947 58.697 33.9066 58.2452 33.9066C58.177 33.9066 58.1077 33.8996 58.0383 33.8847C57.5092 33.7719 57.1725 33.2548 57.2863 32.7298L57.882 29.9803C57.9956 29.4554 58.5175 29.1212 59.0456 29.234C59.5747 29.3468 59.9114 29.8639 59.7976 30.3889L59.7978 30.389ZM52.666 44.2876C53.0672 44.6479 53.0983 45.2626 52.7354 45.6608L50.8341 47.7466C50.6407 47.9587 50.3745 48.0666 50.1073 48.0666C49.8729 48.0666 49.6379 47.9837 49.4505 47.8153C49.0492 47.4551 49.0181 46.8403 49.381 46.4422L51.2823 44.3563C51.6455 43.9581 52.265 43.9274 52.6661 44.2874L52.666 44.2876ZM57.2796 38.4862L55.9871 40.9891C55.8137 41.3251 55.4704 41.5183 55.1145 41.5183C54.9641 41.5183 54.8116 41.4838 54.6684 41.4111C54.1869 41.1662 53.9966 40.5804 54.2433 40.1026L55.5358 37.5997C55.7825 37.1219 56.3727 36.9329 56.8545 37.1777C57.336 37.4226 57.5263 38.0084 57.2796 38.4862Z" fill="#11629A"></path></svg>