<svg xmlns="http://www.w3.org/2000/svg" width="70" height="70" viewBox="0 0 70 70" fill="none"><g clip-path="url(#clip0_1553_533)"><mask id="mask0_1553_533" style="mask-type:luminance" maskUnits="userSpaceOnUse" x="0" y="0" width="70" height="70"><path d="M70 0H0V70H70V0Z" fill="white"></path></mask><g mask="url(#mask0_1553_533)"><path d="M30.4928 13.2656C30.1099 13.2656 29.8009 13.6233 29.8009 14.0647C29.8009 14.5539 29.7677 15.0493 29.7012 15.5362C29.6423 15.9729 29.9005 16.3807 30.2787 16.4496C30.3153 16.4559 30.3512 16.459 30.3864 16.459C30.7219 16.459 31.0167 16.1772 31.0696 15.7828C31.1461 15.2145 31.1854 14.6368 31.1854 14.0647C31.1854 13.6233 30.8757 13.2656 30.4928 13.2656Z" fill="#11629A" stroke="#11629A"></path><path d="M20.3981 23.3606C19.5537 23.2103 18.7398 22.9075 17.9781 22.4612C17.6378 22.2593 17.2204 22.4183 17.0482 22.8127C16.8754 23.2064 17.011 23.687 17.3525 23.8866C18.2444 24.4094 19.198 24.764 20.1873 24.9401C20.2233 24.9463 20.2585 24.9495 20.2938 24.9495C20.6299 24.9495 20.9247 24.6669 20.9769 24.2717C21.0352 23.8365 20.7763 23.4279 20.3981 23.3606Z" fill="#11629A" stroke="#11629A"></path><path d="M29.8473 17.9843C29.5044 17.7816 29.0903 17.9404 28.9168 18.3334C28.5285 19.2115 28.0256 20.0107 27.421 20.7104C27.1507 21.0228 27.1507 21.5291 27.421 21.8407C27.5559 21.9965 27.7335 22.0746 27.9103 22.0746C28.0872 22.0746 28.2648 21.9965 28.3997 21.8407C29.1072 21.0228 29.6961 20.0866 30.1495 19.0589C30.323 18.666 30.1875 18.1846 29.8473 17.9843Z" fill="#11629A" stroke="#11629A"></path><path d="M25.3629 22.4436C24.6024 22.8937 23.7892 23.1989 22.9448 23.3547C22.5673 23.4235 22.3097 23.8328 22.3701 24.2696C22.4243 24.6634 22.7184 24.9436 23.0525 24.9436C23.0885 24.9436 23.1251 24.9404 23.1623 24.9333C24.1504 24.7526 25.1033 24.3933 25.9938 23.8666C26.334 23.6661 26.4682 23.184 26.294 22.7911C26.1199 22.3959 25.7044 22.2385 25.3629 22.4436Z" fill="#11629A" stroke="#11629A"></path><path d="M14.4091 18.3672C14.2342 17.9734 13.8154 17.8184 13.4773 18.0227C13.137 18.2247 13.0042 18.7068 13.179 19.0989C13.6358 20.1235 14.2275 21.0558 14.9384 21.8721C15.0733 22.0271 15.2502 22.1046 15.4264 22.1046C15.6039 22.1046 15.7822 22.0255 15.917 21.869C16.1867 21.5558 16.1854 21.0495 15.9143 20.7387C15.3064 20.0406 14.7995 19.243 14.4091 18.3672Z" fill="#11629A" stroke="#11629A"></path><path d="M13.609 15.5354C13.5426 15.0541 13.5094 14.5587 13.5094 14.0647C13.5094 13.6225 13.1996 13.2656 12.8175 13.2656C12.4345 13.2656 12.1255 13.6233 12.1255 14.0647C12.1255 14.6424 12.1648 15.2208 12.2414 15.7836C12.2956 16.178 12.5897 16.459 12.9245 16.459C12.9605 16.459 12.9963 16.4559 13.0329 16.4489C13.4104 16.3799 13.6686 15.9714 13.609 15.5354Z" fill="#11629A" stroke="#11629A"></path><path d="M57.1116 13.2656C56.7287 13.2656 56.4196 13.6233 56.4196 14.0647C56.4196 14.5579 56.3858 15.0533 56.3207 15.5362C56.2625 15.9729 56.5206 16.3807 56.8981 16.4496C56.9347 16.4559 56.97 16.459 57.0066 16.459C57.342 16.459 57.6355 16.1772 57.689 15.7828C57.7649 15.2176 57.8043 14.64 57.8043 14.0647C57.8043 13.6233 57.4946 13.2656 57.1116 13.2656Z" fill="#11629A" stroke="#11629A"></path><path d="M51.9816 22.4435C51.2233 22.8936 50.4093 23.1988 49.5656 23.3546C49.1867 23.4234 48.93 23.8327 48.9895 24.2695C49.0438 24.6632 49.3386 24.9435 49.672 24.9435C49.7086 24.9435 49.7452 24.9403 49.7818 24.9332C50.7712 24.7525 51.7235 24.3932 52.6139 23.8665C52.9535 23.6652 53.0883 23.1831 52.9142 22.791C52.7386 22.3966 52.3238 22.2438 51.9816 22.4435Z" fill="#11629A" stroke="#11629A"></path><path d="M41.0266 18.3677C40.851 17.9748 40.4356 17.8206 40.0955 18.0233C39.7545 18.2253 39.621 18.7074 39.7965 19.0996C40.2533 20.1249 40.8457 21.0571 41.5566 21.8734C41.6915 22.0276 41.869 22.1051 42.0445 22.1051C42.2228 22.1051 42.4003 22.0261 42.5351 21.8687C42.8056 21.5557 42.8028 21.05 42.5325 20.7386C41.9239 20.0411 41.4169 19.2435 41.0266 18.3677Z" fill="#11629A" stroke="#11629A"></path><path d="M56.4673 17.9843C56.1264 17.7855 55.7116 17.9389 55.5361 18.3326C55.1478 19.2101 54.6449 20.01 54.0397 20.7112C53.7693 21.0236 53.7693 21.5292 54.0397 21.8415C54.1746 21.9965 54.3522 22.0748 54.5291 22.0748C54.7059 22.0748 54.8835 21.9965 55.0184 21.8399C55.7266 21.0212 56.3162 20.0859 56.7689 19.0597C56.943 18.6668 56.8075 18.1847 56.4673 17.9843Z" fill="#11629A" stroke="#11629A"></path><path d="M47.018 23.3609C46.1729 23.2106 45.359 22.9077 44.5979 22.4616C44.2543 22.2611 43.8409 22.4185 43.6667 22.813C43.4939 23.2067 43.6302 23.6873 43.971 23.8868C44.8635 24.4098 45.8178 24.7643 46.8072 24.9404C46.8425 24.9467 46.8791 24.9497 46.9143 24.9497C47.2498 24.9497 47.5445 24.6672 47.5968 24.2719C47.6544 23.8367 47.3962 23.4282 47.018 23.3609Z" fill="#11629A" stroke="#11629A"></path><path d="M40.2278 15.5338C40.1614 15.0549 40.1275 14.5601 40.1275 14.0647C40.1275 13.6225 39.8178 13.2656 39.4355 13.2656C39.0534 13.2656 38.7437 13.6233 38.7437 14.0647C38.7437 14.6439 38.7829 15.2232 38.8602 15.7851C38.9144 16.1788 39.2092 16.459 39.5426 16.459C39.5792 16.459 39.6158 16.4559 39.6525 16.4489C40.0305 16.3791 40.2874 15.9706 40.2278 15.5338Z" fill="#11629A" stroke="#11629A"></path><path d="M35.0411 57.4204C34.6581 57.4204 34.3491 57.7781 34.3491 58.2196V60.0746C34.3491 60.5168 34.6588 60.8737 35.0411 60.8737C35.424 60.8737 35.733 60.516 35.733 60.0746V58.2196C35.733 57.7781 35.4233 57.4204 35.0411 57.4204Z" fill="#11629A" stroke="#11629A"></path><path d="M7.66819 1.68293C7.62007 1.24462 7.28122 0.945623 6.89424 0.990243C6.51472 1.04581 6.24635 1.44578 6.29447 1.88408C6.51338 3.88234 6.74311 5.8978 6.9715 7.89526C8.02873 17.1727 9.02768 25.9366 8.70782 30.499C8.31404 36.1314 6.87798 40.4534 5.35788 45.0299C3.2719 51.3088 1.11475 57.8014 1.11475 68.5432C1.11475 68.9854 1.42446 69.3423 1.80669 69.3423C2.18891 69.3423 2.49863 68.9846 2.49863 68.5432C2.4993 58.0979 4.60969 51.7448 6.65095 45.6005C8.20764 40.9152 9.67757 36.4883 10.0883 30.6274C10.4197 25.8959 9.41123 17.0505 8.34386 7.68629C8.11615 5.69195 7.88708 3.67883 7.66819 1.68293Z" fill="#11629A" stroke="#11629A"></path><path d="M64.6414 45.0293C63.1219 40.4528 61.6858 36.1315 61.2914 30.4976C60.9709 25.9352 61.9711 17.1697 63.0284 7.88912C63.2555 5.89871 63.4838 3.88793 63.7027 1.89673C63.7501 1.45842 63.4824 1.05845 63.1022 1.00289C62.7478 0.948089 62.3778 1.25647 62.329 1.69557C62.1115 3.68522 61.8817 5.69286 61.656 7.68093C60.5879 17.0475 59.5795 25.8945 59.9123 30.6267C60.3216 36.4892 61.7929 40.9154 63.3489 45.6006C65.3902 51.7449 67.5006 58.0973 67.5006 68.5433C67.5006 68.9856 67.8103 69.3425 68.1925 69.3425C68.5755 69.3425 68.8845 68.9848 68.8845 68.5433C68.8852 57.8014 66.7273 51.3089 64.6414 45.0293Z" fill="#11629A" stroke="#11629A"></path></g></g><defs><clipPath id="clip0_1553_533"><rect width="70" height="70" fill="white"></rect></clipPath></defs></svg>