<svg xmlns="http://www.w3.org/2000/svg" width="70" height="70" viewBox="0 0 70 70" fill="none"><g clip-path="url(#clip0_1553_553)"><mask id="mask0_1553_553" style="mask-type:luminance" maskUnits="userSpaceOnUse" x="0" y="0" width="70" height="70"><path d="M70 0H0V70H70V0Z" fill="white"></path></mask><g mask="url(#mask0_1553_553)"><path d="M62.7537 61.9787C64.5252 61.9787 65.9665 60.5374 65.9665 58.7658V55.8824H67.6074C68.9267 55.8824 70 54.8091 70 53.4898V47.8469C70 46.5278 68.9267 45.4543 67.6074 45.4543H62.7086V41.593C62.7086 39.7017 61.1701 38.163 59.2786 38.163C57.4095 38.163 55.8851 39.6655 55.8493 41.5263H53.2453V38.7862C53.2453 37.8438 52.4788 37.0772 51.5364 37.0772H35.3717C33.8122 37.0772 32.3097 37.4974 30.9992 38.282C30.2936 35.7129 27.9389 33.8193 25.1489 33.8193C21.8034 33.8193 19.0816 36.5411 19.0816 39.8866C19.0816 40.3026 19.125 40.7112 19.2082 41.1107H17.4622V10.515H33.7412V13.3051C33.7412 15.0012 35.1212 16.3813 36.8174 16.3813H38.5504V19.0264C38.5504 19.9688 39.3171 20.7353 40.2594 20.7353H52.312C53.2544 20.7353 54.021 19.9688 54.021 19.0264V16.3813H55.7542C57.4503 16.3813 58.8303 15.0012 58.8303 13.3051V10.515H65.0331C65.9755 10.515 66.7422 9.74837 66.7422 8.80597V6.61232C66.7422 3.02632 63.8247 0.108887 60.2387 0.108887H6.50344C2.91744 0.108887 0 3.02632 0 6.61232V14.3067C0 14.8732 0.458965 15.3321 1.02539 15.3321C1.59182 15.3321 2.05078 14.8732 2.05078 14.3067V10.515H15.4114V67.8398H3.75976C2.81737 67.8398 2.05078 67.0733 2.05078 66.1308V55.8824H4.14969C7.10103 55.8824 9.50195 53.4814 9.50195 50.5301V27.7388C9.50195 24.7874 7.1009 22.3865 4.14969 22.3865H2.05078V19.092C2.05078 18.5255 1.59182 18.0666 1.02539 18.0666C0.458965 18.0666 0 18.5255 0 19.092V66.131C0 68.204 1.6867 69.8907 3.75976 69.8907H68.9747C69.541 69.8907 70 69.4318 70 68.8654C70 68.2989 69.541 67.8399 68.9747 67.8399H60.1992V61.9788L62.7537 61.9787ZM2.05078 24.4372H4.14969C5.9701 24.4372 7.45118 25.9182 7.45118 27.7387V50.53C7.45118 52.3504 5.9701 53.8315 4.14969 53.8315H2.05078V24.4372ZM53.2453 43.5769H56.8741C57.4405 43.5769 57.8994 43.118 57.8994 42.5516V41.5929C57.8994 40.8324 58.5181 40.2137 59.2786 40.2137C60.0392 40.2137 60.6578 40.8323 60.6578 41.5929V45.4542H53.2453V43.5769ZM67.6074 47.5051C67.7959 47.5051 67.9492 47.6584 67.9492 47.8469V53.4898C67.9492 53.6784 67.7959 53.8316 67.6074 53.8316H17.4622V47.5051H67.6074ZM31.1602 40.6953C31.1611 40.6907 31.1625 40.6861 31.1631 40.6813C32.3363 39.6769 33.817 39.1279 35.3717 39.1279H51.1947V45.4542H32.6125V45.2568C32.6125 43.8694 31.9268 42.6398 30.8774 41.8868L30.877 41.8847L30.8739 41.8823C31.0085 41.497 31.1053 41.0994 31.1602 40.6953ZM25.1489 35.8699C27.3636 35.8699 29.1653 37.6718 29.1653 39.8865C29.1653 40.3019 29.0985 40.7154 28.9714 41.1105H21.3236C21.1965 40.7167 21.1325 40.307 21.1325 39.8865C21.1324 37.6718 22.9341 35.8699 25.1489 35.8699ZM28.4663 43.1613C29.6217 43.1613 30.5617 44.1014 30.5617 45.2568V45.4542H17.4622V43.1613H28.4663ZM56.7795 13.3051C56.7795 13.8705 56.3197 14.3305 55.7542 14.3305H47.0313C46.4648 14.3305 46.0058 14.7895 46.0058 15.3559C46.0058 15.9223 46.4648 16.3813 47.0313 16.3813H51.9702V18.6846H40.6012V16.3813H42.2461C42.8125 16.3813 43.2715 15.9223 43.2715 15.3559C43.2715 14.7895 42.8125 14.3305 42.2461 14.3305H36.8174C36.2519 14.3305 35.792 13.8705 35.792 13.3051V10.515H56.7795V13.3051ZM2.05078 8.46403V6.61232C2.05078 4.15712 4.04824 2.15967 6.50344 2.15967H60.2385C62.6937 2.15967 64.6913 4.15712 64.6913 6.61232V8.46417L2.05078 8.46403ZM38.058 67.8398H17.4622V55.8824H29.2934V58.7658C29.2934 60.5374 30.7347 61.9787 32.5063 61.9787H38.058V67.8398ZM47.8516 61.9787H58.1484V67.8398H40.1088V61.9787H43.0664C43.6328 61.9787 44.0918 61.5197 44.0918 60.9534C44.0918 60.3869 43.6328 59.9279 43.0664 59.9279H32.5063C31.8654 59.9279 31.3442 59.4067 31.3442 58.7658V55.8824H63.9158V58.7658C63.9158 59.4067 63.3944 59.9279 62.7537 59.9279H47.8516C47.2851 59.9279 46.8261 60.3869 46.8261 60.9534C46.8261 61.5197 47.2851 61.9787 47.8516 61.9787Z" fill="#11629A"></path><path d="M51.6086 25.021C52.009 24.6203 52.009 23.9713 51.6086 23.5707C51.208 23.1704 50.5588 23.1704 50.1584 23.5707C48.0231 25.7061 44.5486 25.7064 42.4131 23.5707C42.0125 23.1704 41.3634 23.1704 40.9629 23.5707C40.5625 23.9714 40.5625 24.6205 40.9629 25.021C42.4305 26.4883 44.3582 27.2223 46.2859 27.2223C48.2133 27.2221 50.141 26.4883 51.6086 25.021Z" fill="#11629A"></path><path d="M34.1197 26.5488C33.7192 26.9493 33.7192 27.5985 34.1197 27.9989C37.4742 31.3535 41.8793 33.0301 46.2856 33.0301C50.6911 33.0301 55.0978 31.3525 58.4516 27.9989C58.8521 27.5984 58.8521 26.9492 58.4516 26.5488C58.0512 26.1486 57.402 26.1483 57.0015 26.5488C51.093 32.4576 41.4786 32.4576 35.5698 26.5488C35.1693 26.1485 34.5201 26.1485 34.1197 26.5488Z" fill="#11629A"></path></g></g><defs><clipPath id="clip0_1553_553"><rect width="70" height="70" fill="white"></rect></clipPath></defs></svg>