<svg xmlns="http://www.w3.org/2000/svg" width="70" height="70" viewBox="0 0 70 70" fill="none"><g clip-path="url(#clip0_1553_561)"><mask id="mask0_1553_561" style="mask-type:luminance" maskUnits="userSpaceOnUse" x="0" y="0" width="70" height="70"><path d="M70 0H0V70H70V0Z" fill="white"></path></mask><g mask="url(#mask0_1553_561)"><path d="M55.6385 36.3372L55.4941 36.572H55.7496H68.2279C68.8145 36.572 69.2899 37.1031 69.2899 37.7601C69.2899 38.417 68.8142 38.9482 68.2276 38.9482H54.103H54.0321L53.992 39.0134L35.5892 68.9389C35.3896 69.2601 35.0627 69.453 34.7123 69.453C34.3614 69.453 34.035 69.263 33.8359 68.9395L15.4328 39.0134L15.3927 38.9482H15.3217H1.19712C0.610551 38.9482 0.134766 38.417 0.134766 37.7601C0.134766 37.1032 0.610552 36.572 1.19712 36.572H13.6755H13.931L13.7866 36.3372L8.18171 27.2245C3.96305 20.3662 4.72257 11.1166 9.98843 5.2299C15.6405 -1.08467 24.5541 -1.57199 30.7247 4.10234L34.6268 7.68845L34.7125 7.76717L34.7981 7.68845L38.7003 4.1024C38.7003 4.10239 38.7002 4.10241 38.7003 4.1024C44.8739 -1.5687 53.7851 -1.08461 59.4366 5.22991C64.7024 11.116 65.462 20.3661 61.2433 27.2245L55.6385 36.3372ZM33.6522 9.89131L33.6393 9.86049L33.6158 9.83886L29.3755 5.94168C26.8914 3.65765 23.8954 2.53205 20.9083 2.53205C17.5015 2.53205 14.1099 3.9975 11.5134 6.88724L11.5037 6.89102L11.4819 6.91531C6.94159 11.9908 6.28575 19.966 9.92516 25.8829L15.5629 35.0487L15.6809 35.2405L15.7891 35.0417L19.7119 27.8365C19.9063 27.4823 20.2492 27.266 20.6174 27.266H20.6204C20.9894 27.266 21.3319 27.4796 21.526 27.8332L26.296 36.5042L26.3354 36.5758H26.4108H30.0735H30.185L30.2057 36.4537L33.6619 16.1321C33.7576 15.5734 34.1963 15.1668 34.7058 15.1668C35.2153 15.1668 35.6539 15.5734 35.7496 16.1321L39.2298 36.4539L39.2507 36.5758H39.362H42.8034H42.8668L42.9072 36.5212L48.1768 29.4059C48.3876 29.1197 48.7005 28.9576 49.03 28.9752L49.0311 28.9753C49.3613 28.9902 49.6666 29.1716 49.8574 29.4709L53.5292 35.2082L53.6411 35.3829L53.7499 35.2059L59.4834 25.8826C63.1228 19.9689 62.467 11.9906 57.9267 6.91491C53.0514 1.46426 45.363 1.04855 40.0427 5.94169L35.8025 9.83886L35.7782 9.86111L35.7653 9.893C35.7284 9.98449 35.6808 10.0703 35.6222 10.1507C35.3943 10.4619 35.0547 10.6079 34.7187 10.5811L34.7084 10.5802L34.6982 10.5812C34.3725 10.6108 34.0242 10.4623 33.796 10.1507C33.7382 10.0714 33.69 9.98198 33.6522 9.89131ZM17.0604 37.4634L34.5838 65.9593L34.6277 66.3109L34.8242 65.9915L52.3148 37.5538L52.368 37.4673L52.3135 37.3819L49.0428 32.2704L48.9409 32.1113L48.8293 32.262L44.1911 38.5242C43.9892 38.7973 43.6891 38.9548 43.3732 38.9548H38.3819C37.8724 38.9548 37.4337 38.5482 37.3381 37.9895L34.8514 23.4679L34.5869 23.4681L32.1181 37.986C32.0224 38.5447 31.5837 38.9514 31.0742 38.9514H25.7507C25.3818 38.9514 25.0392 38.7378 24.8452 38.3842L20.7515 30.9376L20.6361 30.7278L20.5216 30.9381L17.0564 37.3008L17.0113 37.3835L17.0604 37.4634Z" fill="#11629A"></path><path d="M8.18171 27.2245L13.7866 36.3372L13.931 36.572H13.6755H1.19712C0.610552 36.572 0.134766 37.1032 0.134766 37.7601C0.134766 38.417 0.610551 38.9482 1.19712 38.9482H15.3217H15.3927L15.4328 39.0134L33.8359 68.9395C34.035 69.263 34.3614 69.453 34.7123 69.453C35.0627 69.453 35.3896 69.2601 35.5892 68.9389L53.992 39.0134L54.0321 38.9482H54.103H68.2276C68.8142 38.9482 69.2899 38.417 69.2899 37.7601C69.2899 37.1031 68.8145 36.572 68.2279 36.572H55.7496H55.4941L55.6385 36.3372L61.2433 27.2245M8.18171 27.2245L8.07067 27.3093M8.18171 27.2245C3.96305 20.3662 4.72257 11.1166 9.98843 5.2299C15.6405 -1.08467 24.5541 -1.57199 30.7247 4.10234L34.6268 7.68845L34.7125 7.76717L34.7981 7.68845L38.7003 4.1024M61.2433 27.2245C65.462 20.3661 64.7024 11.116 59.4366 5.22991C53.7851 -1.08461 44.8739 -1.5687 38.7003 4.1024M61.2433 27.2245L61.3543 27.3093M38.7003 4.1024C38.7002 4.10241 38.7003 4.10239 38.7003 4.1024ZM33.6522 9.89131L33.6393 9.86049L33.6158 9.83886L29.3755 5.94168C26.8914 3.65765 23.8954 2.53205 20.9083 2.53205C17.5015 2.53205 14.1099 3.9975 11.5134 6.88724L11.5037 6.89102L11.4819 6.91531C6.94159 11.9908 6.28575 19.966 9.92516 25.8829L15.5629 35.0487L15.6809 35.2405L15.7891 35.0417L19.7119 27.8365C19.9063 27.4823 20.2492 27.266 20.6174 27.266H20.6204C20.9894 27.266 21.3319 27.4796 21.526 27.8332L26.296 36.5042L26.3354 36.5758H26.4108H30.0735H30.185L30.2057 36.4537L33.6619 16.1321C33.7576 15.5734 34.1963 15.1668 34.7058 15.1668C35.2153 15.1668 35.6539 15.5734 35.7496 16.1321L39.2298 36.4539L39.2507 36.5758H39.362H42.8034H42.8668L42.9072 36.5212L48.1768 29.4059C48.3876 29.1197 48.7005 28.9576 49.03 28.9752L49.0311 28.9753C49.3613 28.9902 49.6666 29.1716 49.8574 29.4709L53.5292 35.2082L53.6411 35.3829L53.7499 35.2059L59.4834 25.8826C63.1228 19.9689 62.467 11.9906 57.9267 6.91491C53.0514 1.46426 45.363 1.04855 40.0427 5.94169L35.8025 9.83886L35.7782 9.86111L35.7653 9.893C35.7284 9.98449 35.6808 10.0703 35.6222 10.1507C35.3943 10.4619 35.0547 10.6079 34.7187 10.5811L34.7084 10.5802L34.6982 10.5812C34.3725 10.6108 34.0242 10.4623 33.796 10.1507C33.7382 10.0714 33.69 9.98198 33.6522 9.89131ZM17.0604 37.4634L34.5838 65.9593L34.6277 66.3109L34.8242 65.9915L52.3148 37.5538L52.368 37.4673L52.3135 37.3819L49.0428 32.2704L48.9409 32.1113L48.8293 32.262L44.1911 38.5242C43.9892 38.7973 43.6891 38.9548 43.3732 38.9548H38.3819C37.8724 38.9548 37.4337 38.5482 37.3381 37.9895L34.8514 23.4679L34.5869 23.4681L32.1181 37.986C32.0224 38.5447 31.5837 38.9514 31.0742 38.9514H25.7507C25.3818 38.9514 25.0392 38.7378 24.8452 38.3842L20.7515 30.9376L20.6361 30.7278L20.5216 30.9381L17.0564 37.3008L17.0113 37.3835L17.0604 37.4634Z" stroke="#F6F6F6" stroke-width="0.3"></path></g></g><defs><clipPath id="clip0_1553_561"><rect width="70" height="70" fill="white"></rect></clipPath></defs></svg>