<svg xmlns="http://www.w3.org/2000/svg" width="70" height="70" viewBox="0 0 70 70" fill="none"><g clip-path="url(#clip0_1553_568)"><mask id="mask0_1553_568" style="mask-type:luminance" maskUnits="userSpaceOnUse" x="0" y="0" width="70" height="70"><path d="M70 0H0V70H70V0Z" fill="white"></path></mask><g mask="url(#mask0_1553_568)"><mask id="mask1_1553_568" style="mask-type:luminance" maskUnits="userSpaceOnUse" x="0" y="0" width="70" height="70"><path d="M70 0H0V70H70V0Z" fill="white"></path></mask><g mask="url(#mask1_1553_568)"><path d="M67.6064 40.3255L66.0522 41.6752C65.623 42.0479 65.5771 42.6981 65.9499 43.1273C66.1534 43.3618 66.4397 43.4818 66.7275 43.4818C66.9668 43.4818 67.2072 43.3989 67.4021 43.2296L68.9563 41.8799C69.3855 41.5071 69.4313 40.857 69.0586 40.4277C68.686 39.9984 68.0357 39.9527 67.6064 40.3255Z" fill="#11629A" stroke="white" stroke-width="0.4"></path><path d="M24.6437 53.3437C23.3167 53.3237 21.987 53.1722 20.6914 52.8934C20.136 52.7736 19.5881 53.1274 19.4686 53.6831C19.3489 54.2389 19.7026 54.7864 20.2583 54.9059C21.6858 55.213 23.1507 55.3799 24.6125 55.402C24.6179 55.402 24.6231 55.4022 24.6284 55.4022C25.1897 55.4022 25.6489 54.9515 25.6574 54.3884C25.6659 53.82 25.2122 53.3522 24.6437 53.3437Z" fill="#11629A" stroke="white" stroke-width="0.4"></path><path d="M32.7737 52.3724L28.6367 53.0168C28.075 53.1044 27.6905 53.6306 27.778 54.1924C27.8573 54.7004 28.2953 55.0634 28.7938 55.0634C28.8465 55.0634 28.8999 55.0594 28.9536 55.0511L33.0906 54.4066C33.6523 54.319 34.0368 53.7927 33.9491 53.2311C33.8616 52.6692 33.3349 52.2845 32.7737 52.3724Z" fill="#11629A" stroke="white" stroke-width="0.4"></path><path d="M41.3684 53.0177L37.2312 52.3732C36.6718 52.2859 36.1433 52.67 36.0559 53.2318C35.9683 53.7935 36.3527 54.3197 36.9145 54.4072L41.0516 55.0518C41.1053 55.0601 41.1585 55.0641 41.2114 55.0641C41.7099 55.0641 42.1479 54.7011 42.2269 54.193C42.3144 53.6314 41.9301 53.1052 41.3684 53.0177Z" fill="#11629A" stroke="white" stroke-width="0.4"></path><path d="M9.5989 48.9764C9.88668 48.9764 10.173 48.8563 10.3765 48.622C10.7493 48.1929 10.7036 47.5427 10.2743 47.1699L7.11305 44.4245C6.68389 44.0518 6.03377 44.0976 5.66089 44.5268C5.28814 44.9559 5.33384 45.6062 5.76313 45.9789L8.92438 48.7243C9.11928 48.8935 9.35972 48.9764 9.5989 48.9764Z" fill="#11629A" stroke="white" stroke-width="0.4"></path><path d="M16.9039 51.6785C15.6882 51.1516 14.5185 50.5015 13.4273 49.7461C12.9597 49.4224 12.3185 49.5392 11.995 50.0066C11.6716 50.474 11.7882 51.1152 12.2555 51.4388C13.4575 52.2708 14.7459 52.9869 16.0851 53.5673C16.2185 53.6251 16.3572 53.6526 16.4939 53.6526C16.8917 53.6526 17.2707 53.4205 17.4388 53.0322C17.6651 52.5105 17.4256 51.9044 16.9039 51.6785Z" fill="#11629A" stroke="white" stroke-width="0.4"></path><path d="M49.3135 52.8923C48.018 53.1713 46.6884 53.3231 45.3617 53.3436C44.7932 53.3522 44.3396 53.8201 44.3483 54.3886C44.3568 54.9516 44.816 55.4021 45.3772 55.4021C45.3825 55.4021 45.3879 55.4021 45.3932 55.4019C46.8547 55.3796 48.3195 55.2123 49.7469 54.9048C50.3027 54.7851 50.6562 54.2375 50.5365 53.6819C50.4168 53.1262 49.8691 52.7731 49.3135 52.8923Z" fill="#11629A" stroke="white" stroke-width="0.4"></path><path d="M62.8911 44.4205L59.7299 47.1659C59.3007 47.5387 59.2549 48.1888 59.6276 48.6181C59.8312 48.8525 60.1175 48.9724 60.4053 48.9724C60.6444 48.9724 60.8849 48.8895 61.0798 48.7203L64.241 45.9749C64.6701 45.6022 64.716 44.952 64.3433 44.5229C63.9705 44.0936 63.3204 44.0479 62.8911 44.4205Z" fill="#11629A" stroke="white" stroke-width="0.4"></path><path d="M56.5769 49.7428C55.4854 50.4985 54.3157 51.1491 53.1001 51.6762C52.5785 51.9024 52.339 52.5084 52.5653 53.0299C52.7337 53.4182 53.1123 53.6501 53.5102 53.6501C53.6469 53.6501 53.7858 53.6227 53.9191 53.5649C55.2583 52.9842 56.5467 52.2677 57.7488 51.4352C58.216 51.1116 58.3328 50.4702 58.009 50.003C57.6855 49.5356 57.0441 49.4191 56.5769 49.7428Z" fill="#11629A" stroke="white" stroke-width="0.4"></path><path d="M3.94802 41.6751L2.39376 40.3254C1.96461 39.9526 1.31435 39.9985 0.941607 40.4276C0.568856 40.8567 0.614695 41.507 1.04385 41.8798L2.59811 43.2296C2.793 43.3988 3.03331 43.4817 3.27265 43.4817C3.56045 43.4817 3.84674 43.3616 4.05027 43.1273C4.42288 42.698 4.37717 42.0479 3.94802 41.6751Z" fill="#11629A" stroke="white" stroke-width="0.4"></path><path d="M69.719 33.1247L68.3047 31.6288C67.9141 31.2157 67.2627 31.1976 66.8496 31.5879C66.4365 31.9785 66.4181 32.6298 66.8087 33.0431L68.2229 34.539C68.4255 34.7533 68.698 34.8613 68.971 34.8613C69.2249 34.8613 69.4791 34.7679 69.678 34.5799C70.0912 34.1893 70.1096 33.5378 69.719 33.1247Z" fill="#11629A" stroke="white" stroke-width="0.4"></path><path d="M25.5088 16.111C26.829 16.2186 28.1126 16.5358 29.324 17.0539C29.4561 17.1103 29.5932 17.137 29.7282 17.137C30.1278 17.137 30.508 16.9028 30.675 16.5122C30.8985 15.9894 30.656 15.3846 30.1333 15.161C28.7173 14.5555 27.2176 14.1848 25.6759 14.0593C25.1089 14.0119 24.6125 14.435 24.5664 15.0015C24.5203 15.5681 24.9422 16.0649 25.5088 16.111Z" fill="#11629A" stroke="white" stroke-width="0.4"></path><path d="M17.425 18.1161C17.613 18.1161 17.8035 18.0647 17.9742 17.9565C19.0882 17.2519 20.3044 16.7355 21.5893 16.4215C22.1416 16.2866 22.4799 15.7295 22.3448 15.1772C22.2099 14.625 21.6532 14.287 21.1006 14.4217C19.5988 14.7887 18.1767 15.3926 16.8737 16.2167C16.3933 16.5206 16.2502 17.1564 16.5541 17.6369C16.75 17.9466 17.0838 18.1161 17.425 18.1161Z" fill="#11629A" stroke="white" stroke-width="0.4"></path><path d="M10.5625 23.7476C10.7615 23.9358 11.0156 24.029 11.2694 24.029C11.5425 24.029 11.8152 23.9208 12.0176 23.7067L14.9574 20.5968C15.348 20.1838 15.3296 19.5322 14.9165 19.1416C14.5036 18.751 13.8522 18.7696 13.4614 19.1825L10.5216 22.2924C10.1311 22.7056 10.1493 23.357 10.5625 23.7476Z" fill="#11629A" stroke="white" stroke-width="0.4"></path><path d="M40.2801 17.1333C40.4147 17.1333 40.5518 17.1067 40.6836 17.0504C41.8953 16.5331 43.179 16.2168 44.4989 16.1102C45.0656 16.0645 45.4879 15.5679 45.442 15.0013C45.3963 14.4346 44.8969 14.0123 44.3332 14.0581C42.7916 14.1826 41.2919 14.5523 39.8755 15.1568C39.3526 15.3801 39.1097 15.9848 39.333 16.5076C39.4999 16.8989 39.8801 17.1333 40.2801 17.1333Z" fill="#11629A" stroke="white" stroke-width="0.4"></path><path d="M32.6394 19.162C32.8263 19.3286 33.5587 20.0548 33.5587 20.0548C33.943 20.4415 34.455 20.6546 35.0002 20.6546C35.5456 20.6546 36.0575 20.4417 36.442 20.0548C36.442 20.0548 37.178 19.325 37.3672 19.1566C37.792 18.7788 37.8298 18.1282 37.4521 17.7036C37.0741 17.2789 36.4234 17.2408 35.9988 17.6187C35.7782 17.815 35.0002 18.585 35.0002 18.585C35.0002 18.585 34.227 17.8193 34.0091 17.6251C33.5847 17.2469 32.9341 17.2844 32.5559 17.7087C32.1775 18.1332 32.2151 18.7839 32.6394 19.162Z" fill="#11629A" stroke="white" stroke-width="0.4"></path><path d="M5.38953 30.2488C5.66264 30.2488 5.93533 30.1406 6.13776 29.9265L9.07761 26.8166C9.46803 26.4035 9.44979 25.752 9.03671 25.3614C8.62347 24.9707 7.972 24.9894 7.58155 25.4023L4.64169 28.5122C4.25111 28.9254 4.2695 29.5768 4.68259 29.9674C4.88145 30.1554 5.13577 30.2488 5.38953 30.2488Z" fill="#11629A" stroke="white" stroke-width="0.4"></path><path d="M57.9891 23.7136C58.1916 23.9278 58.464 24.0358 58.7371 24.0358C58.9909 24.0358 59.2452 23.9425 59.4441 23.7545C59.8572 23.3639 59.8756 22.7124 59.485 22.2993L56.545 19.1894C56.1544 18.7763 55.5028 18.758 55.0898 19.1486C54.6767 19.5391 54.6583 20.1906 55.0489 20.6037L57.9891 23.7136Z" fill="#11629A" stroke="white" stroke-width="0.4"></path><path d="M60.9697 25.3683C60.5566 25.7589 60.5382 26.4102 60.9288 26.8234L63.8686 29.9334C64.0712 30.1476 64.3436 30.2556 64.6168 30.2556C64.8707 30.2556 65.1248 30.1623 65.3237 29.9743C65.7368 29.5836 65.7552 28.9323 65.3646 28.5191L62.4247 25.4092C62.034 24.996 61.3826 24.9777 60.9697 25.3683Z" fill="#11629A" stroke="white" stroke-width="0.4"></path><path d="M48.4182 16.4235C49.703 16.7384 50.9195 17.2556 52.033 17.9612C52.2039 18.0695 52.3945 18.1211 52.583 18.1211C52.9238 18.1211 53.2575 17.9517 53.4535 17.6425C53.7578 17.1622 53.615 16.5263 53.1348 16.222C51.8324 15.397 50.4103 14.792 48.9083 14.4239C48.3561 14.2885 47.7988 14.6266 47.6637 15.1787C47.5282 15.7309 47.8662 16.2882 48.4182 16.4235Z" fill="#11629A" stroke="white" stroke-width="0.4"></path><path d="M1.77728 34.539L3.19155 33.0431C3.58214 32.63 3.56376 31.9785 3.15065 31.5879C2.73742 31.1973 2.08607 31.2159 1.69548 31.6288L0.281344 33.1248C-0.109246 33.5379 -0.0908559 34.1893 0.322242 34.5799C0.521242 34.7681 0.775414 34.8613 1.02917 34.8613C1.30228 34.8613 1.57485 34.7532 1.77728 34.539Z" fill="#11629A" stroke="white" stroke-width="0.4"></path><path d="M58.7027 15.338C58.8734 15.446 59.0639 15.4976 59.252 15.4976C59.5931 15.4976 59.927 15.3281 60.1229 15.0184L61.8613 12.2703L62.0075 12.8424C62.1263 13.3078 62.5449 13.6173 63.004 13.6173C63.0884 13.6173 63.174 13.6068 63.2595 13.585C63.8103 13.4443 64.1428 12.8837 64.002 12.333L63.265 9.44793C63.1301 8.91931 62.605 8.58827 62.0708 8.69248L59.1481 9.26239C58.5903 9.37125 58.226 9.91174 58.3349 10.4697C58.4437 11.0277 58.9843 11.3924 59.5422 11.283L60.1216 11.1701L58.3832 13.9181C58.0793 14.3983 58.2223 15.034 58.7027 15.338Z" fill="#11629A" stroke="white" stroke-width="0.4"></path><path d="M6.88061 13.5848C6.96612 13.6066 7.05175 13.617 7.13615 13.617C7.59523 13.617 8.01382 13.3075 8.13266 12.8422L8.2788 12.2701L10.0172 15.0183C10.2132 15.3279 10.5469 15.4974 10.8882 15.4974C11.0764 15.4974 11.2667 15.4459 11.4374 15.3378C11.9178 15.0339 12.0609 14.398 11.7571 13.9176L10.0187 11.1697L10.5981 11.2827C11.1565 11.3917 11.6965 11.0274 11.8054 10.4694C11.9142 9.91152 11.5502 9.37086 10.9921 9.26209L8.06951 8.6921C7.53388 8.58749 7.0103 8.91909 6.87526 9.44763L6.13828 12.3326C5.99747 12.8834 6.32986 13.4441 6.88061 13.5848Z" fill="#11629A" stroke="white" stroke-width="0.4"></path><path d="M63.2591 56.4157C62.7085 56.2752 62.1477 56.6072 62.007 57.1582L61.8609 57.7301L60.1225 54.982C59.8186 54.5017 59.1826 54.3586 58.7022 54.6624C58.2219 54.9662 58.0788 55.6021 58.3828 56.0826L60.1212 58.8305L59.5418 58.7176C58.9841 58.6084 58.4433 58.9729 58.3345 59.5309C58.2256 60.089 58.5897 60.6294 59.1477 60.7382L62.0703 61.3082C62.1366 61.3211 62.2029 61.3274 62.2682 61.3274C62.7294 61.3274 63.1463 61.0157 63.2646 60.5527L64.0016 57.6678C64.1423 57.117 63.8097 56.5565 63.2591 56.4157Z" fill="#11629A" stroke="white" stroke-width="0.4"></path><path d="M11.4376 54.6624C10.957 54.3585 10.3214 54.5018 10.0174 54.9821L8.27896 57.7302L8.13283 57.1581C7.99212 56.6074 7.43164 56.2747 6.88075 56.4157C6.33 56.5564 5.99746 57.117 6.13827 57.6677L6.87526 60.5527C6.99357 61.0158 7.41009 61.3274 7.87162 61.3274C7.93698 61.3274 8.00313 61.3213 8.06951 61.3082L10.9921 60.7382C11.5501 60.6294 11.9142 60.0889 11.8054 59.5309C11.6965 58.9729 11.1557 58.6086 10.5981 58.7176L10.0188 58.8306L11.7573 56.0826C12.0611 55.6021 11.9179 54.9663 11.4376 54.6624Z" fill="#11629A" stroke="white" stroke-width="0.4"></path><path d="M53.486 48.791C54.6533 48.1644 55.7513 47.4071 56.7491 46.5404L65.7169 38.7522L67.4719 38.7839C67.4815 38.7841 67.4909 38.7841 67.5003 38.7841C68.2121 38.7841 68.8035 38.3005 68.9441 37.5996C69.0864 36.8893 68.7155 36.2068 68.0421 35.9395L64.098 34.3759L49.2452 25.7974C45.7857 23.7993 41.5797 23.6581 37.9938 25.4193L35.4888 26.6498C35.1828 26.8001 34.8177 26.8001 34.5119 26.6498L32.0066 25.4193C28.4838 23.689 24.334 23.7988 20.9063 25.7132C20.4098 25.9905 20.2323 26.6174 20.5095 27.1138C20.7867 27.6102 21.4138 27.788 21.9101 27.5106C24.7478 25.9258 28.1831 25.8348 31.0992 27.2672L33.6045 28.4977C34.4785 28.927 35.5224 28.927 36.3965 28.4977L38.9017 27.2672C41.8698 25.809 45.3519 25.926 48.2159 27.5802L63.1339 36.1963C63.1773 36.2215 64.2924 36.6675 64.2924 36.6675L45.2436 36.3231C44.0278 36.3026 42.8239 36.588 41.7514 37.1523L36.5377 39.8943C35.5752 40.4006 34.4258 40.4006 33.4632 39.8943L28.2494 37.1523C27.1767 36.588 25.9715 36.3004 24.7572 36.3233L5.70841 36.6676C5.70841 36.6676 6.82349 36.2216 6.86686 36.1965L18.0597 29.7319C18.552 29.4475 18.7206 28.8179 18.4363 28.3257C18.152 27.8334 17.5222 27.665 17.0302 27.9491L5.90261 34.3759L1.95842 35.9399C1.28511 36.207 0.914143 36.8894 1.0566 37.5998C1.19892 38.3102 1.80292 38.7916 2.52866 38.7841L4.28356 38.7524L13.2514 46.5405C16.5288 49.3869 20.6801 50.9184 24.9525 50.9184C25.8702 50.9184 26.7938 50.8477 27.7151 50.7042L34.2176 49.6912C34.737 49.6102 35.2634 49.6102 35.783 49.6912L42.2856 50.7042C44.4678 51.0441 46.6713 50.9778 48.835 50.5068C49.3904 50.3859 49.7427 49.8376 49.6216 49.2821C49.5008 48.7266 48.9525 48.3744 48.3969 48.4954C46.4829 48.9122 44.5334 48.9709 42.6024 48.6701L36.0998 47.6571C35.3702 47.5435 34.6302 47.5435 33.9006 47.6571L27.3981 48.6701C22.7877 49.3883 18.1236 48.0457 14.601 44.9863L7.35888 38.6967L24.7942 38.3817C25.6601 38.3641 26.524 38.5709 27.2909 38.9742L32.5047 41.7163C33.286 42.1274 34.1431 42.3328 35.0003 42.3328C35.8574 42.3328 36.7146 42.1274 37.4957 41.7163L42.7095 38.9742C43.4763 38.5711 44.3407 38.3646 45.2061 38.3817L62.6415 38.6967L55.3994 44.9863C54.5165 45.7529 53.5451 46.4229 52.5122 46.9775C52.0114 47.2463 51.8233 47.8704 52.0921 48.3712C52.2779 48.7172 52.633 48.9138 53 48.9138C53.1643 48.9137 53.331 48.8742 53.486 48.791Z" fill="#11629A" stroke="white" stroke-width="0.4"></path></g></g></g><defs><clipPath id="clip0_1553_568"><rect width="70" height="70" fill="white"></rect></clipPath></defs></svg>