<svg xmlns="http://www.w3.org/2000/svg" width="70" height="70" viewBox="0 0 70 70" fill="none"><path d="M34.9999 52.5002C30.8283 52.5002 26.6392 52.1632 22.553 51.4939C21.9558 51.3977 21.5512 50.8355 21.6496 50.2405C21.748 49.6411 22.3408 49.2343 22.903 49.337C26.8755 49.9845 30.9442 50.3127 34.9999 50.3127C45.4955 50.3127 55.6433 48.1777 65.1808 43.9668L43.3824 5.16046C38.1651 7.71546 31.8346 7.71546 26.6174 5.16046L4.81895 43.9668C6.69145 44.7936 8.61863 45.5505 10.5633 46.222C11.1342 46.4211 11.4339 47.0423 11.2392 47.6155C11.0401 48.1864 10.4233 48.4839 9.84583 48.2914C7.45926 47.4645 5.09676 46.513 2.82395 45.4673C2.54613 45.3382 2.33395 45.102 2.23988 44.8111C2.14583 44.5202 2.17863 44.2052 2.32738 43.9382L25.2305 3.16328C25.3705 2.91171 25.6089 2.72578 25.889 2.64703C26.1667 2.56608 26.4687 2.60328 26.7201 2.74765C31.7821 5.59796 38.2176 5.59796 43.2796 2.74765C43.5289 2.60546 43.8308 2.56608 44.1108 2.64703C44.3908 2.72578 44.6271 2.91171 44.7692 3.16328L67.6724 43.9382C67.8212 44.2052 67.8539 44.5223 67.7599 44.8111C67.6658 45.0998 67.4537 45.3382 67.1758 45.4673C57.0367 50.1332 46.2108 52.5002 34.9999 52.5002Z" fill="#11629A"></path><path d="M36.2031 34.3875C35.6103 34.3875 35.0109 34.3197 34.4246 34.1841C33.8362 34.0485 33.4687 33.4622 33.6043 32.8716C33.7421 32.2832 34.3218 31.9135 34.9168 32.0513C37.4303 32.6288 40.0859 31.43 41.3612 29.2425C41.3896 29.1945 41.4203 29.1463 41.4575 29.1025C41.4903 29.05 41.5231 28.9888 41.5231 28.9888C41.895 28.2954 42.1225 27.4947 42.1771 26.6613C42.2187 26.4207 42.2187 26.2654 42.2187 26.1625C42.2187 25.7425 41.8753 25.397 41.4531 25.397C41.0112 25.397 40.6656 25.7316 40.6656 26.1625C40.6656 26.7663 40.1756 27.2563 39.5718 27.2563C38.9681 27.2563 38.4781 26.7663 38.4781 26.1625C38.4781 24.535 39.8125 23.2095 41.4531 23.2095C43.0806 23.2095 44.4062 24.5329 44.4062 26.1625C44.4062 26.3945 44.4062 26.6875 44.3318 26.9895C44.2859 27.952 43.9709 29.0522 43.4241 30.0716C43.3541 30.2007 43.2884 30.3145 43.2009 30.4304C41.7353 32.8716 39.0621 34.3875 36.2031 34.3875Z" fill="#11629A"></path><path d="M39.375 28.4158C38.7713 28.4136 38.2812 27.9258 38.2812 27.3221C38.2812 27.0311 38.4192 26.6877 38.6226 26.4821C39.0492 26.0555 39.7426 26.0555 40.1692 26.4821C40.482 26.7927 40.565 27.2455 40.4228 27.6305C40.2894 28.0855 39.8716 28.4158 39.375 28.4158Z" fill="#11629A"></path><path d="M49.6999 37.9181C49.1706 37.9181 48.6631 37.8284 48.2365 37.6447C47.0946 37.1809 45.9308 36.3299 45.3468 33.3527C45.2833 33.0706 45.244 32.8824 45.2199 32.6549C45.1631 32.0556 45.6028 31.5197 46.2043 31.4606C46.7687 31.4343 47.3418 31.8434 47.3987 32.4449C47.4118 32.574 47.4381 32.6812 47.4621 32.7949C47.9303 35.1597 48.569 35.4177 49.0808 35.6277C49.4768 35.794 50.4546 35.7656 51.0824 35.3565C51.4456 35.1181 51.4937 34.8752 51.4937 34.6937C51.4937 34.3699 51.3931 34.2343 51.3078 34.1534C50.9862 33.8515 50.2708 33.8012 50.0346 33.8165C49.4528 33.8647 48.9474 33.4337 48.8774 32.8584C48.7615 31.9222 48.2037 28.9122 45.3403 29.1549C42.8771 29.3847 42.0896 32.7447 42.3018 35.0524C42.3565 35.6518 41.9146 36.1877 41.3131 36.2424C40.7224 36.2862 40.1778 35.8552 40.1231 35.2537C39.7774 31.5043 41.4006 27.3306 45.0908 26.9762C48.0308 26.7137 50.1987 28.5359 50.8943 31.6902C51.4871 31.7843 52.2243 32.014 52.8018 32.5565C53.3793 33.0947 53.6812 33.834 53.6812 34.6959C53.6812 35.7109 53.1846 36.5947 52.2812 37.1874C51.5528 37.6643 50.5968 37.9181 49.6999 37.9181Z" fill="#11629A"></path><path d="M39.8539 45.9395C31.3271 45.9395 29.2118 38.677 28.188 35.1661C28.0087 34.5513 27.7855 33.7858 27.6608 33.5976C27.628 33.5758 27.4508 33.4488 27.2168 33.2738C25.4077 31.9133 20.5996 28.3038 20.873 22.8286C21.118 18.1145 25.1714 14.2842 29.903 14.2842C34.4662 14.2842 38.2089 17.8586 38.4824 22.3517C39.8299 23.1436 40.6655 24.5699 40.6655 26.1601C40.6655 26.6217 40.5912 27.1008 40.4402 27.5776C40.4358 27.5929 40.4293 27.6083 40.4249 27.6236C40.4118 27.6674 40.3964 27.7088 40.3789 27.7504C40.2412 28.0763 40.0377 28.5029 39.7074 28.8967C39.6112 29.0499 39.5389 29.1286 39.4624 29.2051C38.8958 29.7804 38.3139 30.1392 37.6468 30.382C37.0758 30.5876 36.4524 30.2967 36.2446 29.7279C36.0368 29.1613 36.3299 28.5336 36.8987 28.3258C37.2662 28.1901 37.5746 28.0063 37.7889 27.792L37.8262 27.8138C37.8787 27.7133 37.9924 27.5317 38.058 27.4595C38.1674 27.3283 38.2702 27.1138 38.3489 26.9324V26.9301C38.4321 26.6611 38.4758 26.4029 38.4758 26.1601C38.4758 25.2217 37.8939 24.3949 36.9949 24.0558C36.5705 23.8938 36.2883 23.487 36.2883 23.032C36.2883 22.9533 36.3102 22.7826 36.3277 22.7061C36.3124 19.3483 33.4358 16.4717 29.903 16.4717C26.3133 16.4717 23.2421 19.3724 23.0539 22.9379C22.8396 27.2517 26.8274 30.2442 28.5293 31.5238C28.8684 31.7776 29.1177 31.9724 29.2424 32.0949C29.7083 32.5695 29.9271 33.3176 30.288 34.5558C31.2921 38.0033 32.9699 43.752 39.8605 43.752C39.9327 43.752 40.0049 43.752 40.0793 43.7499C41.6827 43.7213 43.1046 43.052 44.0824 41.862C45.5808 40.0399 46.0162 37.0911 45.3424 33.3351C45.2352 32.7424 45.6312 32.1736 46.2262 32.0663C46.8058 31.9636 47.3877 32.3551 47.4949 32.9501C48.4924 38.5174 47.1077 41.6258 45.7712 43.2511C44.3799 44.9442 42.3718 45.9001 40.1164 45.9395C40.0289 45.9395 39.9393 45.9395 39.8539 45.9395Z" fill="#11629A"></path><path d="M19.6875 67.8125C19.6634 67.8125 19.6416 67.8125 19.6175 67.8103C19.0991 67.7753 18.6747 67.3816 18.6047 66.8653L16.2356 49.5009L14.1991 60.3575C14.1094 60.8366 13.7156 61.1975 13.2322 61.2456C12.7268 61.2806 12.2893 61.0138 12.11 60.5609L11.0753 57.9775L10.9812 58.2881C10.8412 58.7475 10.4168 59.0625 9.93562 59.0625H3.28125C2.6775 59.0625 2.1875 58.5725 2.1875 57.9688C2.1875 57.365 2.6775 56.875 3.28125 56.875H9.12625L9.89188 54.3682C10.0297 53.9263 10.4278 53.6156 10.8916 53.5938C11.4253 53.5784 11.7797 53.8518 11.9525 54.2806L12.7422 56.2559L15.3322 42.4528C15.4284 41.9366 15.8813 41.5625 16.4063 41.5625H16.4347C16.9707 41.5756 17.4168 41.9759 17.4891 42.5097L20.0462 61.25L21.9143 54.3988C22.0413 53.935 22.4569 53.6068 22.9403 53.5938C23.4282 53.6113 23.8547 53.8847 24.0078 54.3418L24.85 56.875H47.0313C47.635 56.875 48.125 57.365 48.125 57.9688C48.125 58.5725 47.635 59.0625 47.0313 59.0625H24.0625C23.6403 59.0625 23.2597 58.8197 23.0782 58.4457L20.7441 67.0075C20.6128 67.4866 20.1797 67.8125 19.6875 67.8125Z" fill="#11629A"></path><path d="M51.625 59.0625H51.4063C50.8025 59.0625 50.3125 58.5725 50.3125 57.9688C50.3125 57.365 50.8025 56.875 51.4063 56.875C52.01 56.875 52.6093 57.365 52.6093 57.9688C52.6093 58.5725 52.2288 59.0625 51.625 59.0625Z" fill="#11629A"></path></svg>