<svg xmlns="http://www.w3.org/2000/svg" width="70" height="70" viewBox="0 0 70 70" fill="none"><g clip-path="url(#clip0_1553_640)"><mask id="mask0_1553_640" style="mask-type:luminance" maskUnits="userSpaceOnUse" x="0" y="0" width="70" height="70"><path d="M70 0H0V70H70V0Z" fill="white"></path></mask><g mask="url(#mask0_1553_640)"><mask id="mask1_1553_640" style="mask-type:luminance" maskUnits="userSpaceOnUse" x="0" y="0" width="70" height="70"><path d="M70 0H0V70H70V0Z" fill="white"></path></mask><g mask="url(#mask1_1553_640)"><path d="M23.9111 18.5936H38.9646C39.7198 18.5936 40.3319 17.9814 40.3319 17.2265C40.3319 16.4715 39.7198 15.8592 38.9646 15.8592H33.8337C31.7587 15.8591 30.0707 14.1709 30.0707 12.0959V4.92187C30.0707 4.16691 29.4586 3.55469 28.7035 3.55469C27.9484 3.55469 27.3363 4.16691 27.3363 4.92187V12.0959C27.3363 13.4974 27.7823 14.7966 28.5399 15.8592H23.9111C23.156 15.8592 22.5439 16.4715 22.5439 17.2265C22.5439 17.9814 23.156 18.5936 23.9111 18.5936Z" fill="#11629A"></path><path d="M62.7826 40.7232C62.8542 40.1858 62.8905 39.6432 62.8905 39.1013C62.8905 32.3165 57.3706 26.7967 50.5858 26.7967H49.7575C51.5332 25.0583 52.6364 22.636 52.6364 19.9608C52.6364 14.6837 48.3432 10.3904 43.0662 10.3904C40.991 10.3904 39.3028 8.70215 39.3028 6.62716V4.92187C39.3028 4.16691 38.6908 3.55469 37.9356 3.55469C37.1805 3.55469 36.5684 4.16691 36.5684 4.92187V6.62716C36.5684 10.21 39.4833 13.1249 43.0662 13.1249C46.8355 13.1249 49.9021 16.1915 49.9021 19.9608C49.9021 23.73 46.8356 26.7966 43.0664 26.7967H12.3047C11.5496 26.7967 10.9375 27.409 10.9375 28.164C10.9375 28.9189 11.5496 29.5311 12.3047 29.5311H50.5859C55.863 29.5311 60.1563 33.8242 60.1563 39.1013C60.1563 39.2816 60.1511 39.4621 60.1408 39.6423C58.93 39.2903 57.6508 39.1015 56.3282 39.1015C50.2178 39.1015 45.0309 43.1307 43.2847 48.6716H23.2422C22.4871 48.6716 21.875 49.2838 21.875 50.0388C21.875 50.7937 22.4871 51.406 23.2422 51.406H28.3731C30.448 51.4061 32.1363 53.0946 32.1363 55.1694V65.0778C32.1363 65.8328 32.7484 66.445 33.5034 66.445C34.2586 66.445 34.8707 65.8328 34.8707 65.0778V55.1694C34.8707 53.7679 34.4246 52.4686 33.667 51.406H42.7243C42.6795 51.8558 42.6564 52.3117 42.6564 52.7732C42.6564 60.312 48.7895 66.445 56.3283 66.445C63.8671 66.445 70.0001 60.312 70.0001 52.7732C70 47.5673 67.0751 43.0317 62.7826 40.7232ZM56.3282 63.7107C50.2972 63.7107 45.3907 58.8041 45.3907 52.7732C45.3907 46.7424 50.2972 41.8358 56.3282 41.8358C62.3591 41.8358 67.2657 46.7424 67.2657 52.7732C67.2657 58.8041 62.3591 63.7107 56.3282 63.7107Z" fill="#11629A"></path><path d="M62.171 54.958C61.4159 54.958 60.8032 55.5702 60.8032 56.3252C60.8032 57.0801 61.4159 57.6923 62.171 57.6923C62.9261 57.6923 63.5382 57.0801 63.5382 56.3252C63.5382 55.5702 62.9261 54.958 62.171 54.958Z" fill="#11629A"></path><path d="M63.0421 50.3603C63.0421 49.6054 62.43 48.9932 61.6748 48.9932C60.9197 48.9932 60.3071 49.6054 60.3071 50.3603C60.3071 51.1153 60.9197 51.7275 61.6748 51.7275C62.43 51.7275 63.0421 51.1153 63.0421 50.3603Z" fill="#11629A"></path><path d="M55.5956 56.7876C54.8405 56.7876 54.228 57.3998 54.228 58.1548C54.228 58.9097 54.8405 59.522 55.5956 59.522C56.3508 59.522 56.9629 58.9097 56.9629 58.1548C56.9629 57.3998 56.3508 56.7876 55.5956 56.7876Z" fill="#11629A"></path><path d="M53.044 46.1699C50.7824 46.1699 48.9424 48.0099 48.9424 50.2714C48.9424 52.533 50.7824 54.3729 53.044 54.3729C55.3055 54.3729 57.1455 52.533 57.1455 50.2714C57.1455 48.0099 55.3055 46.1699 53.044 46.1699ZM53.044 51.6385C52.29 51.6385 51.6767 51.0253 51.6767 50.2714C51.6767 49.5176 52.29 48.9042 53.044 48.9042C53.7978 48.9042 54.4111 49.5176 54.4111 50.2714C54.4111 51.0253 53.7978 51.6385 53.044 51.6385Z" fill="#11629A"></path><path d="M19.1407 54.1404C15.3713 54.1404 12.3047 51.0738 12.3047 47.3045C12.3047 43.5367 15.3697 40.4704 19.1374 40.4687H44.4333C45.1884 40.4687 45.8005 39.8565 45.8005 39.1015C45.8005 38.3465 45.1884 37.7342 44.4333 37.7342H12.3047C7.02762 37.7342 2.73438 33.4411 2.73438 28.164C2.73438 23.1294 6.66969 18.9345 11.6934 18.6139C12.447 18.5658 13.0189 17.9161 12.9708 17.1625C12.9226 16.4089 12.2733 15.8369 11.5193 15.8852C5.05996 16.2973 0 21.6907 0 28.164C0 34.9487 5.51988 40.4687 12.3047 40.4687H12.4497C10.6739 42.2071 9.57032 44.6295 9.57032 47.3045C9.57032 52.5815 13.8636 56.8748 19.1407 56.8748C21.2158 56.8748 22.9041 58.5631 22.9041 60.6381V65.0779C22.9041 65.8328 23.5162 66.445 24.2713 66.445C25.0263 66.445 25.6384 65.8328 25.6384 65.0779V60.6381C25.6383 57.0553 22.7234 54.1404 19.1407 54.1404Z" fill="#11629A"></path><path d="M17.7593 18.5938C18.5144 18.5938 19.1264 17.9816 19.1264 17.2266C19.1264 16.4717 18.5144 15.8594 17.7593 15.8594C17.0042 15.8594 16.3916 16.4717 16.3916 17.2266C16.3916 17.9816 17.0041 18.5938 17.7593 18.5938Z" fill="#11629A"></path></g></g></g><defs><clipPath id="clip0_1553_640"><rect width="70" height="70" fill="white"></rect></clipPath></defs></svg>