<svg xmlns="http://www.w3.org/2000/svg" width="70" height="70" viewBox="0 0 70 70" fill="none"><g clip-path="url(#clip0_1553_657)"><mask id="mask0_1553_657" style="mask-type:luminance" maskUnits="userSpaceOnUse" x="0" y="0" width="70" height="70"><path d="M70 0H0V70H70V0Z" fill="white"></path></mask><g mask="url(#mask0_1553_657)"><mask id="mask1_1553_657" style="mask-type:luminance" maskUnits="userSpaceOnUse" x="0" y="0" width="70" height="70"><path d="M70 0H0V70H70V0Z" fill="white"></path></mask><g mask="url(#mask1_1553_657)"><path fill-rule="evenodd" clip-rule="evenodd" d="M20.9958 43.058H12.2611C11.359 43.058 10.6208 42.3199 10.6208 41.4177V34.7334H3.77256C2.87039 34.7334 2.13225 33.9953 2.13225 33.0931V24.3175C2.13225 23.4153 2.87039 22.6772 3.77256 22.6772H10.6208V15.8289C10.6208 14.9268 11.359 14.1886 12.2611 14.1886H20.9958C21.8979 14.1886 22.6361 14.9268 22.6361 15.8289V22.6772H29.3613C30.2635 22.6772 31.0016 23.4153 31.0016 24.3175V33.0931C31.0016 33.9953 30.2635 34.7334 29.3613 34.7334H22.6361V41.4177C22.6361 42.3199 21.8979 43.058 20.9958 43.058ZM37.5628 70C23.5382 70 17.7972 56.7545 14.2705 59.338C10.8259 61.8395 12.8352 64.464 11.728 65.8582C11.482 66.1863 11.0719 66.4323 10.6208 66.4733C10.2928 66.4733 2.29628 67.2115 0.409932 61.5114C0.327916 61.2244 0.286909 60.8963 0.368924 60.6092C2.05024 53.4329 5.12581 49.0861 9.67765 47.3228C17.8382 44.1652 28.0901 50.3983 33.011 46.2156C35.4304 44.1652 36.6197 39.6544 36.7017 32.355C36.7427 28.1312 34.9383 24.8096 33.011 21.2419C30.3045 16.116 27.1469 10.3339 29.5253 1.18921C29.7304 0.492083 30.3865 -0.0410156 31.1246 -0.0410156H39.2031C40.1463 -0.0410156 40.9255 0.820144 40.8434 1.80433C40.5564 3.93672 40.3103 9.39074 41.7046 12.9174C51.3414 3.44463 61.6343 10.785 66.5552 22.2671C69.1387 28.2132 70.1639 34.8975 69.4258 40.5975C69.3027 44.8623 67.9085 49.2911 65.325 53.3919C59.5429 62.7826 48.2658 70 37.5628 70ZM15.2547 55.6883C20.2986 55.6883 24.1123 63.5208 32.3959 65.9812C38.7931 67.9086 46.7895 66.0223 53.8429 60.8963C61.2242 55.5653 65.9401 47.6918 66.1451 40.4335C66.1451 40.3925 66.1451 40.3105 66.1451 40.2695C66.8423 35.1025 65.8991 29.0334 63.5617 23.5384C61.2242 18.1254 57.8616 14.1476 54.3349 12.5893C50.3162 10.826 46.4205 12.2203 42.6478 16.7311C41.9506 17.5513 40.7204 17.5102 40.1053 16.6901C37.2348 13.0404 37.1938 6.4792 37.3988 3.23959H32.4369C29.6894 16.198 40.1463 20.9959 40.0233 32.396C39.6542 61.7575 20.9547 46.5026 10.9079 50.3983C7.50425 51.6696 5.16682 55.1142 3.73155 60.8553C4.63372 62.6596 7.13518 63.1107 8.81649 63.1927C9.06254 58.5589 12.5482 55.6883 15.2547 55.6883ZM36.8247 61.0193C35.2664 61.0193 33.7081 60.8143 32.3139 60.3632C30.2225 59.7481 31.1656 56.6315 33.216 57.2466C38.0549 58.6409 44.1651 57.0006 49.25 53.0228C50.9723 51.6696 53.0227 54.2531 51.3004 55.6063C46.8306 59.092 41.6226 61.0193 36.8247 61.0193ZM13.9014 39.7774H19.3554V33.0931C19.3554 32.191 20.0936 31.4528 20.9958 31.4528H27.721V25.9578H20.9958C20.0936 25.9578 19.3554 25.2197 19.3554 24.3175V17.4692H13.9014V24.3175C13.9014 25.2197 13.1633 25.9578 12.2611 25.9578H5.41286V31.4528H12.2611C13.1633 31.4528 13.9014 32.191 13.9014 33.0931V39.7774Z" fill="#11629A" stroke="white"></path></g></g></g><defs><clipPath id="clip0_1553_657"><rect width="70" height="70" fill="white"></rect></clipPath></defs></svg>